HIERARCHY
ROOT root
{
	OFFSET	0	13.1	24.9
	CHANNELS 6  Xposition Yposition Zposition Xrotation Yrotation Zrotation
	JOINT spine_1
	{
		OFFSET	0	9.99999	0
		CHANNELS 3  Xrotation Yrotation Zrotation
		JOINT spine_2
		{
			OFFSET	0	112	-10
			CHANNELS 3  Xrotation Yrotation Zrotation
			JOINT spine_3
			{
				OFFSET	0	206.5	19.3
				CHANNELS 3  Xrotation Yrotation Zrotation
				JOINT spine_4
				{
					OFFSET	0	110.4	14.6
					CHANNELS 3  Xrotation Yrotation Zrotation
					JOINT neck_1
					{
						OFFSET	0	71.8	-50.3
						CHANNELS 3  Xrotation Yrotation Zrotation
						JOINT neck_2
						{
							OFFSET	0	86.2	-25.8
							CHANNELS 3  Xrotation Yrotation Zrotation
							JOINT head_ee
							{
								OFFSET	0	179.8	-8.7
								CHANNELS 3  Xrotation Yrotation Zrotation
								End Site
								{
									OFFSET	1	0	0
								}
							}
						}
					}
					JOINT left_clavicle
					{
						OFFSET	-43.2	22.4	-70.8
						CHANNELS 3  Xrotation Yrotation Zrotation
						JOINT left_shoulder
						{
							OFFSET	-93.9	-5.79999	48.7
							CHANNELS 3  Xrotation Yrotation Zrotation
							JOINT left_elbow
							{
								OFFSET	-291.4	-30.8	15.2
								CHANNELS 3  Xrotation Yrotation Zrotation
								JOINT left_lowarm_twist
								{
									OFFSET	-110.7	-3.89999	13.6
									CHANNELS 3  Xrotation Yrotation Zrotation
									JOINT left_hand
									{
										OFFSET	-110.7	-3.89999	13.6
										CHANNELS 3  Xrotation Yrotation Zrotation
										JOINT left_ee
										{
											OFFSET	-80.8	-5.10001	12.1
											CHANNELS 3  Xrotation Yrotation Zrotation
											End Site
											{
												OFFSET	1	0	0
											}
										}
									}
								}
							}
						}
					}
					JOINT right_clavicle
					{
						OFFSET	43.2	22.4	-70.8
						CHANNELS 3  Xrotation Yrotation Zrotation
						JOINT right_shoulder
						{
							OFFSET	93.9	-5.79999	48.7
							CHANNELS 3  Xrotation Yrotation Zrotation
							JOINT right_elbow
							{
								OFFSET	291.4	-30.8	15.2
								CHANNELS 3  Xrotation Yrotation Zrotation
								JOINT right_lowarm_twist
								{
									OFFSET	110.7	-3.89999	13.6
									CHANNELS 3  Xrotation Yrotation Zrotation
									JOINT right_hand
									{
										OFFSET	110.7	-3.89999	13.6
										CHANNELS 3  Xrotation Yrotation Zrotation
										JOINT right_ee
										{
											OFFSET	80.8	-5.10001	12.1
											CHANNELS 3  Xrotation Yrotation Zrotation
											End Site
											{
												OFFSET	1	0	0
											}
										}
									}
								}
							}
						}
					}
				}
			}
		}
	}
	JOINT left_hip
	{
		OFFSET	-82.8	-127.5	0.300001
		CHANNELS 3  Xrotation Yrotation Zrotation
		JOINT left_knee
		{
			OFFSET	-28.2	-396.7	2.2
			CHANNELS 3  Xrotation Yrotation Zrotation
			JOINT left_ankle
			{
				OFFSET	-11.7	-411.3	35.4
				CHANNELS 3  Xrotation Yrotation Zrotation
				JOINT left_toes
				{
					OFFSET	0	-60	-88.6
					CHANNELS 3  Xrotation Yrotation Zrotation
					JOINT left_foot_ee
					{
						OFFSET	-22.5	-16.5	-42.2
						CHANNELS 3  Xrotation Yrotation Zrotation
						End Site
						{
							OFFSET	1	0	0
						}
					}
				}
			}
		}
	}
	JOINT right_hip
	{
		OFFSET	82.8	-127.5	0.300001
		CHANNELS 3  Xrotation Yrotation Zrotation
		JOINT right_knee
		{
			OFFSET	28.2	-396.7	2.2
			CHANNELS 3  Xrotation Yrotation Zrotation
			JOINT right_ankle
			{
				OFFSET	11.7	-411.3	35.4
				CHANNELS 3  Xrotation Yrotation Zrotation
				JOINT right_toes
				{
					OFFSET	0	-60	-88.6
					CHANNELS 3  Xrotation Yrotation Zrotation
					JOINT right_foot_ee
					{
						OFFSET	22.5	-16.5	-42.2
						CHANNELS 3  Xrotation Yrotation Zrotation
						End Site
						{
							OFFSET	1	0	0
						}
					}
				}
			}
		}
	}
}
MOTION
Frames: 9
Frame Time: 0.02
1005.71 689.926 -1134.91 -151.557 -62.7022 -152.636 2.04946 -0.207032 -0.99716 2.05 -0.143163 -1.00831 2.05251 0.0355232 -1.0178 2.05109 -0.125657 -1.01064 0.519842 4.94621 -1.32636 0.609112 9.87477 -0.948295 -0.0 0.0 -0.0 8.97381 7.55966 17.152 -21.2337 -56.6906 32.2654 1.81352 -41.9314 0.694948 6.83964 0.190285 -0.85244 -2.75023 -19.6833 -27.5303 -0.0 0.0 -0.0 7.98295 -14.7852 -14.7876 -59.9238 56.2677 -38.7342 0.286429 8.0759 -0.0202198 51.192 1.05546 6.23899 -0.142674 -6.09258 -1.6106 0.0 0.0 0.0 6.25466 -10.5925 2.7765 -17.565 0.316676 2.66636 37.9905 20.6659 -4.85361 -25.9901 0.0 0.0 -0.0 0.0 -0.0 40.5419 7.84317 -4.10273 -6.6026 -0.214998 -0.989937 -4.15019 -1.93177 -0.616939 5.5271 -0.0 -0.0 0.0 0.0 0.0 
1027.26 691.118 -1129.2 -151.9 -64.3951 -153.157 1.94038 -0.430992 -1.12014 1.94101 -0.358846 -1.14529 1.94826 -0.150732 -1.19068 1.94644 -0.336875 -1.15195 0.193728 4.20452 -4.30753 0.368379 11.011 -4.22615 -0.0 0.0 -0.0 9.06228 7.62168 17.3147 -20.503 -56.1275 36.2313 1.78117 -41.4194 0.67344 8.35528 0.218588 -1.04397 -2.48956 -16.6224 -24.3867 -0.0 0.0 -0.0 8.06169 -15.6709 -14.8407 -60.5279 55.4915 -36.9546 0.36968 10.3777 -0.0335712 50.6986 1.01928 6.18719 -0.37204 -6.29651 -0.198052 0.0 0.0 0.0 4.99569 -11.1664 2.93737 -19.4567 0.301707 2.95623 35.9239 18.6712 -4.60827 -24.9862 0.0 0.0 -0.0 0.0 -0.0 39.1076 8.73295 -2.72534 -7.29052 -0.230799 -1.09432 -3.17588 -1.63527 -0.471448 5.31527 -0.0 -0.0 0.0 0.0 0.0 
1041.37 694.367 -1122.15 -151.721 -64.3714 -153.804 2.13193 -0.450921 -1.01966 2.13243 -0.385127 -1.04628 2.13951 -0.19777 -1.09723 2.13802 -0.368565 -1.05223 1.01947 4.11117 -3.81364 1.17936 10.4354 -3.78136 -0.0 0.0 -0.0 9.74145 5.38298 18.7946 -21.5578 -51.9272 37.3997 1.6175 -38.7009 0.568072 9.98781 0.243393 -1.25102 -2.27168 -19.3793 -23.9207 -0.0 0.0 -0.0 8.44503 -15.0432 -15.5479 -61.1317 54.9192 -35.7356 0.364062 10.2233 -0.0325665 50.7156 1.02051 6.18898 -0.186632 -6.47876 -1.48461 0.0 0.0 0.0 6.87331 -10.0931 3.85066 -21.8893 0.268408 3.32797 36.2269 20.4659 -4.67493 -22.5935 0.0 0.0 -0.0 0.0 -0.0 37.9143 9.29447 -1.88348 -7.17945 -0.228333 -1.07746 0.166599 2.66178 0.0248327 5.8405 -0.0 -0.0 0.0 0.0 0.0 
1057.89 694.383 -1117.31 -152.582 -63.7728 -155.22 2.08803 -0.0333523 -0.746156 2.08834 0.0141938 -0.746766 2.08813 0.144231 -0.732844 2.08738 0.0266852 -0.746424 0.0888721 4.49563 -3.39584 0.231092 10.7839 -3.19781 -0.0 0.0 -0.0 9.05098 4.67517 17.4924 -21.3755 -51.3614 39.6701 1.67869 -39.7427 0.606765 8.74836 0.2251 -1.09376 -1.89016 -20.9208 -21.8087 -0.0 0.0 -0.0 7.84298 -13.9214 -14.6207 -59.3793 56.3308 -37.1659 0.434274 12.141 -0.0461846 48.6927 0.876822 5.9735 -0.599328 -12.8929 -1.52977 0.0 0.0 0.0 7.64705 -10.0029 4.55814 -23.9849 0.227087 3.64688 24.8112 19.2998 -3.39041 -23.1112 0.0 0.0 -0.0 0.0 -0.0 36.6815 9.53446 -1.59265 -6.96661 -0.223515 -1.04515 -0.885121 0.0874626 -0.131252 4.49505 -0.0 -0.0 0.0 0.0 0.0 
1078.23 697.671 -1109.16 -151.234 -63.5874 -154.465 2.13459 0.0675679 -0.661162 2.13483 0.109501 -0.655522 2.13354 0.22167 -0.626549 2.13301 0.119938 -0.653693 0.374157 4.44074 -3.29343 0.514167 10.5981 -3.1201 -0.0 0.0 -0.0 9.07317 3.87048 17.5821 -22.9213 -50.7846 41.2164 1.51298 -36.8486 0.50404 11.7939 0.263949 -1.4808 -1.87006 -21.0896 -21.733 -0.0 0.0 -0.0 8.76498 -14.268 -16.1755 -59.9266 55.1903 -34.5843 0.419141 11.7299 -0.0430551 51.6505 1.08948 6.28684 -0.106633 -5.10201 -1.43357 0.0 0.0 0.0 9.16424 -10.4277 5.22516 -26.338 0.16682 4.00293 23.431 22.2654 -3.26439 -22.0154 0.0 0.0 -0.0 0.0 -0.0 35.8251 9.99293 -0.407722 -7.33631 -0.231806 -1.10128 0.981485 3.98558 0.14669 4.1776 -0.0 -0.0 0.0 0.0 0.0 
1086.53 702.551 -1103.42 -152.313 -63.7714 -155.986 1.96595 0.268919 -0.420757 1.966 0.295147 -0.402793 1.96389 0.36163 -0.344352 1.96385 0.302708 -0.397142 0.0966177 4.43144 -3.37983 0.236193 10.6565 -3.18767 -0.0 0.0 -0.0 9.44316 3.29895 18.347 -24.0798 -49.9656 40.8717 1.34697 -33.7115 0.408121 12.031 0.266109 -1.511 -1.82039 -18.8035 -20.4748 -0.0 0.0 -0.0 8.83144 -14.1444 -16.3035 -58.8081 56.2946 -34.2545 0.485729 13.5293 -0.057616 50.5017 1.00496 6.16643 -0.0258947 -6.97259 -2.73744 0.0 0.0 0.0 12.0264 -9.66916 5.44107 -31.1156 -0.000278437 4.7169 18.1643 25.3186 -2.62947 -22.1646 0.0 0.0 -0.0 0.0 -0.0 34.4922 10.105 0.295246 -6.04894 -0.201371 -0.906065 -2.31447 5.46043 -0.350844 3.78983 -0.0 -0.0 0.0 0.0 0.0 
1108.05 708.001 -1096.89 -152.252 -64.0267 -156.341 1.86064 0.321026 -0.365153 1.86065 0.343611 -0.343985 1.85856 0.399458 -0.277177 1.85862 0.35067 -0.336786 0.0263925 4.5674 -4.22796 0.207425 11.5918 -4.08572 -0.0 0.0 -0.0 9.83079 2.73246 19.1573 -26.0274 -48.9511 41.8883 1.22219 -31.1911 0.341152 12.3584 0.268887 -1.55273 -1.72637 -17.8393 -19.4214 -0.0 0.0 -0.0 8.92339 -13.7276 -16.5074 -58.5413 56.4374 -33.8781 0.469392 13.0902 -0.053855 50.2523 0.98693 6.14007 -0.0694051 -6.66012 -2.32476 0.0 0.0 0.0 14.3084 -9.02359 5.27909 -34.7082 -0.164867 5.24347 9.194 26.147 -1.37942 -23.0823 0.0 0.0 -0.0 0.0 -0.0 33.6049 10.2001 0.584549 -6.34308 -0.208711 -0.950607 -4.58959 5.02909 -0.697848 2.7508 -0.0 -0.0 0.0 0.0 0.0 
1135.11 711.589 -1086.69 -153.648 -63.582 -158.707 1.77801 0.4202 -0.199798 1.77793 0.432062 -0.172654 1.77661 0.456061 -0.0921678 1.77686 0.435781 -0.163039 0.742525 4.90647 -4.05583 0.94014 12.0457 -3.9462 -0.0 0.0 -0.0 9.95708 3.83767 19.3362 -26.7211 -48.3059 44.6181 0.999412 -26.3385 0.23385 13.0559 0.274009 -1.64167 -1.68502 -16.6243 -18.6321 -0.0 0.0 -0.0 8.80753 -12.9029 -16.388 -58.1523 56.8569 -33.5303 0.488129 13.5937 -0.0581787 50.0501 0.972398 6.11865 -0.0638536 -6.23631 -2.18549 0.0 0.0 0.0 16.8137 -8.71341 6.21062 -38.7446 -0.388839 5.82174 1.31351 26.0392 -0.201102 -24.5836 0.0 0.0 -0.0 0.0 -0.0 31.3536 10.1505 1.4236 -5.95183 -0.198897 -0.891366 -5.2451 4.84344 -0.797934 2.44157 -0.0 -0.0 0.0 0.0 0.0 
1157.89 713.545 -1075.54 -154.504 -63.925 -159.856 1.94752 0.456892 -0.150989 1.94741 0.465574 -0.121609 1.94642 0.479742 -0.0373526 1.94672 0.467822 -0.112652 1.53256 4.69121 -5.76038 1.8358 13.0753 -5.93809 -0.0 0.0 -0.0 9.5368 4.20973 18.4757 -28.719 -49.0297 47.2877 0.838221 -22.5495 0.167112 12.5797 0.270629 -1.58094 -1.29717 -15.5905 -15.4942 -0.0 0.0 -0.0 8.57381 -9.13747 -16.2886 -50.1513 58.1535 -36.8632 0.437692 12.2337 -0.0469062 50.458 1.00179 6.16182 -0.118697 -7.09755 -2.18476 0.0 0.0 0.0 18.7759 -8.17779 6.2713 -42.8146 -0.65547 6.38774 -4.76364 24.2648 0.731476 -25.2853 0.0 0.0 -0.0 0.0 -0.0 29.0875 10.114 1.74424 -5.94321 -0.198676 -0.890063 -2.88172 -1.07038 -0.428044 5.4932 -0.0 -0.0 0.0 0.0 0.0 
